<?xml version="1.0" encoding="utf-8"?>
<!-- Generator: Adobe Illustrator 23.0.0, SVG Export Plug-In . SVG Version: 6.00 Build 0)  -->
<svg version="1.1" id="Capa_1" xmlns="http://www.w3.org/2000/svg" xmlns:xlink="http://www.w3.org/1999/xlink" x="0px" y="0px"
	 viewBox="0 0 600 90" style="enable-background:new 0 0 600 90;" xml:space="preserve">
<style type="text/css">
	.st0{fill:#33CC66;}
	.st1{fill:#333333;}
</style>
<g>
	<path class="st0" d="M187.3,35.3l-3.5-3.5c-17.5-17.5-45-19-64.2-4.5l-3.9-3.9c-2.6-2.6-6.9-2.6-9.6,0L89.4,40.2
		c-2.6,2.6-2.6,6.9,0,9.6l3.1,3.1c-13.8,9.3-32.8,7.9-45-4.3l-3.5-3.5c3.6-7.5,2.3-16.9-4-23.1c-7.9-7.9-20.8-7.9-28.7,0
		s-7.9,20.8,0,28.7c6.2,6.2,15.5,7.6,23.1,4l3.5,3.5c17.5,17.5,45,19,64.2,4.5l3.9,3.9c2.6,2.6,6.9,2.6,9.6,0l16.7-16.7
		c2.6-2.6,2.6-6.9,0-9.6l-3.1-3.1c13.8-9.3,32.8-7.9,45,4.3l3.5,3.5c-3.6,7.5-2.3,16.9,4,23.1c7.9,7.9,20.8,7.9,28.7,0
		s7.9-20.8,0-28.7C204.1,33,194.8,31.7,187.3,35.3z M30.6,41.2c-2.6,2.6-6.9,2.6-9.6,0c-2.6-2.6-2.6-6.9,0-9.6s6.9-2.6,9.6,0
		S33.2,38.5,30.6,41.2z M118.1,45l-7.2,7.2l-7.2-7.2l7.2-7.2L118.1,45z M200.8,58.4c-2.6,2.6-6.9,2.6-9.6,0s-2.6-6.9,0-9.6
		c2.6-2.6,6.9-2.6,9.6,0C203.4,51.5,203.4,55.8,200.8,58.4z"/>
</g>
<g>
	<path class="st1" d="M288.5,58.1h-18.4l-2.4,8.6h-18l19.3-56.3h22.4l19.3,56.3H291L288.5,58.1z M285.1,45.8l-5.4-19.2h-0.8
		l-5.4,19.2H285.1z"/>
	<path class="st1" d="M354.4,46.5c0,13.7-5.7,21.4-14.9,21.4c-4.1,0-7.4-1.5-10.3-5.3v20.4h-13.9V27h11.4l1,4.2
		c2.1-3.8,6.5-5.5,11.3-5.5C347,25.8,354.4,32.9,354.4,46.5z M340.2,46.8c0-6.2-2.2-9.5-6.2-9.5c-1.7,0-3.3,0.6-4.7,1.7v15.7
		c1.3,1.1,2.9,1.8,4.7,1.8C338,56.4,340.2,53,340.2,46.8z"/>
	<path class="st1" d="M399.6,46.5c0,13.7-5.7,21.4-14.8,21.4c-4.1,0-7.4-1.5-10.3-5.3v20.4h-13.9V27H372l1,4.2
		c2.1-3.8,6.5-5.5,11.3-5.5C392.1,25.8,399.6,32.9,399.6,46.5z M385.3,46.8c0-6.2-2.2-9.5-6.2-9.5c-1.7,0-3.3,0.6-4.7,1.7v15.7
		c1.3,1.1,2.9,1.8,4.7,1.8C383.1,56.4,385.3,53,385.3,46.8z"/>
	<path class="st1" d="M406.5,10.3h17.1l14.7,25.3h0.8V10.3h17.1v56.3h-15.5l-16.3-27.7h-0.8v27.7h-17.1V10.3z"/>
	<path class="st1" d="M464,46.8c0-13.4,7.2-21,20-21c12.8,0,20,7.6,20,21c0,13.5-7.2,21.1-20,21.1C471.2,67.8,464,60.3,464,46.8z
		 M490.1,46.8c0-6.3-2-9.5-6.1-9.5c-4.1,0-6.1,3.3-6.1,9.5c0,6.4,2,9.6,6.1,9.6C488.1,56.4,490.1,53.2,490.1,46.8z"/>
	<path class="st1" d="M547.9,7.1v59.6h-11.4l-1.4-5.6c-3,5-6.8,6.9-11.3,6.9c-9.1,0-14.9-7.7-14.9-21.4c0-13.1,5.3-20.6,15.3-20.6
		c4,0,7.7,1.2,9.8,3.6V7.1H547.9z M534,54.6V39c-1.2-1.1-2.9-1.7-4.7-1.7c-4,0-6.2,3.3-6.2,9.5s2.2,9.6,6.2,9.6
		C531.1,56.4,532.8,55.8,534,54.6z"/>
	<path class="st1" d="M554,46.8c0-13.4,7.2-21,20-21c12.8,0,20,7.6,20,21c0,13.5-7.2,21.1-20,21.1C561.2,67.8,554,60.3,554,46.8z
		 M580.1,46.8c0-6.3-2-9.5-6.1-9.5c-4.1,0-6.1,3.3-6.1,9.5c0,6.4,2,9.6,6.1,9.6C578.1,56.4,580.1,53.2,580.1,46.8z"/>
</g>
<g>
</g>
<g>
</g>
<g>
</g>
<g>
</g>
<g>
</g>
<g>
</g>
<g>
</g>
<g>
</g>
<g>
</g>
<g>
</g>
<g>
</g>
<g>
</g>
<g>
</g>
<g>
</g>
<g>
</g>
</svg>
